<svg width="20" height="15" viewBox="0 0 20 15" fill="none" xmlns="http://www.w3.org/2000/svg">
<path d="M1.75 0C1.28587 0 0.840752 0.184375 0.512563 0.512563C0.184375 0.840752 0 1.28587 0 1.75V4.75C0 5.716 0.784 6.5 1.75 6.5H17.75C18.2141 6.5 18.6592 6.31563 18.9874 5.98744C19.3156 5.65925 19.5 5.21413 19.5 4.75V1.75C19.5 1.28587 19.3156 0.840752 18.9874 0.512563C18.6592 0.184375 18.2141 0 17.75 0H1.75ZM1.75 8C1.28587 8 0.840752 8.18437 0.512563 8.51256C0.184375 8.84075 0 9.28587 0 9.75V12.75C0 13.716 0.784 14.5 1.75 14.5H17.75C18.2141 14.5 18.6592 14.3156 18.9874 13.9874C19.3156 13.6592 19.5 13.2141 19.5 12.75V9.75C19.5 9.28587 19.3156 8.84075 18.9874 8.51256C18.6592 8.18437 18.2141 8 17.75 8H1.75Z" fill="#146EBF"/>
</svg>
